HIERARCHY
ROOT Hips
{
  OFFSET -33.9132 29.2015 117.021
  CHANNELS 6 Xposition Yposition Zposition Zrotation Xrotation Yrotation
  JOINT LeftUpLeg
  {
    OFFSET 8.64259 1.95398 -2.38835
    CHANNELS 3 Zrotation Xrotation Yrotation
    JOINT LeftLeg
    {
      OFFSET 43.7702 0 0
      CHANNELS 3 Zrotation Xrotation Yrotation
      JOINT LeftFoot
      {
        OFFSET 40.6238 0 0
        CHANNELS 3 Zrotation Xrotation Yrotation
        JOINT LeftToeBase
        {
          OFFSET 12.7242 0 0
          CHANNELS 3 Zrotation Xrotation Yrotation
          End Site
          {
            OFFSET 0 0 0
          }
        }
      }
    }
  }
  JOINT RightUpLeg
  {
    OFFSET -8.2249 1.95398 -2.59336
    CHANNELS 3 Zrotation Xrotation Yrotation
    JOINT RightLeg
    {
      OFFSET 43.5653 0 0
      CHANNELS 3 Zrotation Xrotation Yrotation
      JOINT RightFoot
      {
        OFFSET 40.6238 0 0
        CHANNELS 3 Zrotation Xrotation Yrotation
        JOINT RightToeBase
        {
          OFFSET 12.7242 0 0
          CHANNELS 3 Zrotation Xrotation Yrotation
          End Site
          {
            OFFSET 0 0 0
          }
        }
      }
    }
  }
  JOINT Spine
  {
    OFFSET 0.165834 0.87714 6.61349
    CHANNELS 3 Zrotation Xrotation Yrotation
    JOINT Spine1
    {
      OFFSET 7.38963 1.71661e-005 0
      CHANNELS 3 Zrotation Xrotation Yrotation
      JOINT Spine2
      {
        OFFSET 11.9445 1.14441e-005 0
        CHANNELS 3 Zrotation Xrotation Yrotation
        JOINT Spine3
        {
          OFFSET 14.7254 4.19617e-005 0
          CHANNELS 3 Zrotation Xrotation Yrotation
          JOINT Spine4
          {
            OFFSET 10.9679 0 0
            CHANNELS 3 Zrotation Xrotation Yrotation
            JOINT RightShoulder
            {
              OFFSET 2.46616 -1.6653 3.69651
              CHANNELS 3 Zrotation Xrotation Yrotation
              JOINT RightArm
              {
                OFFSET 13.0012 0 0
                CHANNELS 3 Zrotation Xrotation Yrotation
                JOINT RightForeArm
                {
                  OFFSET 28.7848 1.62311e-005 0
                  CHANNELS 3 Zrotation Xrotation Yrotation
                  JOINT RightHand
                  {
                    OFFSET 26.5688 1.62095e-005 0
                    CHANNELS 3 Zrotation Xrotation Yrotation
                    End Site
                    {
                      OFFSET 0 0 0
                    }
                  }
                }
              }
            }
            JOINT LeftShoulder
            {
              OFFSET 2.38034 -1.29275 -3.7523
              CHANNELS 3 Zrotation Xrotation Yrotation
              JOINT LeftArm
              {
                OFFSET 16.3182 6.07031e-005 0
                CHANNELS 3 Zrotation Xrotation Yrotation
                JOINT LeftForeArm
                {
                  OFFSET 27.0901 0 0
                  CHANNELS 3 Zrotation Xrotation Yrotation
                  JOINT LeftHand
                  {
                    OFFSET 24.5451 1.51738e-005 0
                    CHANNELS 3 Zrotation Xrotation Yrotation
                    End Site
                    {
                      OFFSET 0 0 0
                    }
                  }
                }
              }
            }
            JOINT Neck
            {
              OFFSET 5.0226 -0.0266342 0
              CHANNELS 3 Zrotation Xrotation Yrotation
              JOINT Head
              {
                OFFSET 6.69364 2.86102e-005 0
                CHANNELS 3 Zrotation Xrotation Yrotation
                End Site
                {
                  OFFSET 0 0 0
                }
              }
            }
          }
        }
      }
    }
  }
}
MOTION
Frames:	18
Frame Time:	0.0416667
-150.876 79.9164 -151.102 -67.0659 -68.2536 -67.0074 -173.004 58.1986 121.25 -67.7261 9.43068 -0.631915 83.2943 15.4155 0.195052 29.9306 -2.51976 7.31917 174.03 41.3079 68.6742 -65.4017 -20.5419 -4.3022 78.1868 -13.3219 0.699025 45.9064 -7.52662 -1.59832 0.57017 9.59172 -90.8292 7.69311 0.777754 -1.6773 -3.97873 0.70317 -1.7099 -26.5095 1.24584 -1.3661 -6.49687 1.24584 -1.3661 87.6551 -23.4824 -114.6 38.4742 -7.27362 10.9554 -47.0852 -12.8334 -79.6814 -24.7989 8.6542 -44.1158 -89.1233 -44.1762 78.8014 -4.61104 20.7735 -5.67214 14.8069 12.8018 -50.2302 22.614 -15.8337 -64.7704 31.6367 1.9077 1.08994 -0.937798 1.40489 2.70057 
-146.051 81.1056 -146.341 -66.2537 -72.9995 -65.222 -171.939 56.312 117.739 -65.2227 14.8614 -1.32131 78.3759 11.867 -0.71874 33.6587 -0.567455 7.44828 172.963 31.5386 66.5102 -56.0702 -19.1862 -5.86894 72.908 -9.49975 1.42898 48.0248 -8.36392 -4.40453 0.60791 9.42986 -90.7239 8.01743 0.896529 -1.48039 -3.65409 0.830514 -1.51839 -26.1873 1.29996 -1.14255 -6.17464 1.29997 -1.14255 87.9115 -23.1762 -114.217 39.2029 -8.68336 16.5313 -41.5765 -8.89892 -81.7279 -24.5378 8.66053 -44.5616 -88.2306 -39.6337 79.233 4.44374 22.4741 -14.1314 11.7583 10.0566 -50.3651 21.6639 -15.4043 -65.708 28.6542 -1.20566 -2.80187 -0.671658 -0.0101106 3.20799 
-140.241 83.9985 -140.322 -58.3962 -77.8023 -54.2703 -170.843 54.1202 112.926 -66.0748 15.9158 -1.60998 78.2144 11.801 -0.429179 26.9779 -3.37886 5.57678 171.732 18.4249 67.6676 -40.2136 -16.5641 -7.01686 58.8654 -0.906082 2.99945 50.3957 -9.35718 -6.32223 0.491257 9.05226 -91.01 8.77186 0.531429 -2.03048 -2.90062 0.441568 -2.05188 -25.4262 1.11702 -1.77702 -5.41357 1.11701 -1.77703 88.6556 -23.4053 -112.486 39.4805 -8.544 24.1916 -38.125 -5.56279 -84.9473 -23.6492 9.26981 -48.5172 -87.41 -34.6498 79.4707 9.86914 21.2919 -24.8563 9.95993 10.7282 -48.6171 21.7578 -15.6853 -66.4511 24.2428 -3.38908 -7.99445 -1.69326 -0.417129 4.99907 
-133.182 87.0352 -133.365 -37.5097 -80.4864 -30.8678 -171.068 49.7789 108.08 -64.5101 14.0871 -0.576199 80.944 13.654 -1.46331 28.3475 -3.52335 7.65267 172.334 11.5261 70.1587 -34.3826 -13.1507 -9.05622 56.1963 1.83897 -0.886194 24.5214 1.49499 1.05264 0.136438 8.54125 -91.3494 9.77975 -0.338939 -2.64724 -1.89382 -0.455087 -2.62979 -24.4077 0.47205 -2.62678 -4.39502 0.472045 -2.62679 89.9964 -23.5586 -109.503 38.558 -6.49862 29.8919 -39.6862 -4.06334 -88.3923 -21.5488 9.78763 -54.9475 -87.2985 -30.7261 78.688 12.2231 19.4892 -30.6469 8.06676 9.13289 -49.2649 20.7056 -15.8438 -69.5303 17.4961 -3.38724 -13.5731 -2.94908 0.63702 7.51603 
-125.799 89.2369 -127.214 -40.4739 -81.5421 -31.9033 -169.977 42.3108 103.803 -63.0769 8.07045 -0.17785 87.4477 16.8177 -4.76839 26.6064 -4.99451 8.70782 173.422 11.2237 72.8959 -40.7155 -18.1156 -9.38862 61.6295 -1.55779 -4.1211 15.0337 4.17697 5.94354 0.215005 8.50548 -91.6616 9.84653 -0.324742 -3.27057 -1.82845 -0.468305 -3.25314 -24.3314 0.672671 -3.21714 -4.31877 0.672674 -3.21713 92.6524 -21.7439 -104.353 38.2824 -9.05222 35.3498 -38.8611 0.489702 -93.6747 -20.3454 9.52811 -56.4387 -87.1991 -27.0832 77.8517 14.1894 15.5333 -32.7559 10.2185 10.8256 -50.2695 25.3063 -18.7731 -68.6088 14.5925 -1.09048 -12.3789 -3.95551 2.14545 8.57465 
-117.879 91.1606 -122.107 -59.9704 -79.3483 -51.3455 -167.108 34.2689 97.6749 -59.1335 1.92071 -1.78326 89.3638 18.5972 -3.19247 27.3548 -4.11343 7.66059 173.687 18.8578 74.6483 -50.7791 -17.701 -6.38276 63.3969 -2.73276 -3.95129 16.5833 3.1443 6.9382 0.273859 8.578 -91.7535 9.70093 -0.246773 -3.45857 -1.97455 -0.398657 -3.44439 -24.4741 0.803456 -3.37308 -4.46141 0.803463 -3.37308 93.042 -20.9561 -103.77 37.1376 -8.91423 37.7544 -35.698 2.5514 -96.9899 -15.3439 8.05237 -62.3316 -86.6468 -27.1201 78.9661 14.5889 16.9818 -25.3907 9.59077 8.01845 -51.2916 23.1931 -16.9373 -67.7432 13.9654 4.92052 -6.13789 -6.42742 6.11998 8.70046 
-109.892 93.8445 -116.985 -69.2844 -71.8989 -62.9744 -161.391 28.3785 91.8306 -52.9808 -0.0457277 -7.38815 81.9067 15.2187 1.10802 31.2728 0.884306 0.75107 174.951 30.3457 77.9944 -58.4205 -14.8503 -4.0398 68.8676 -6.7771 -5.4824 19.1569 2.6025 5.49041 0.35408 8.44579 -91.4773 9.97391 0.0342607 -2.93526 -1.70035 -0.0948943 -2.93394 -24.2108 0.914509 -2.7895 -4.19813 0.914507 -2.7895 92.0364 -21.1944 -105.997 36.2874 -8.50986 37.4599 -36.6261 3.3529 -98.1464 -13.328 7.22471 -64.4308 -85.589 -29.7432 81.7318 10.2458 20.9824 -11.1136 11.5405 4.44376 -55.6563 22.5636 -16.4083 -67.5778 12.5314 13.0749 2.17528 -9.08392 11.845 7.06958 
-102.552 96.3204 -112.209 -70.3286 -65.1651 -67.4331 -157.562 26.7921 89.141 -47.4272 9.90736 -13.3164 64.3174 2.58079 1.64811 41.3638 6.80279 -5.31609 174.149 38.7571 83.1243 -59.3947 -14.6968 -1.39183 69.7955 -6.88751 -2.9126 22.6071 0.930271 6.29139 0.497206 8.43225 -90.9906 10.0114 0.54029 -2.01068 -1.66101 0.451302 -2.0325 -24.1871 1.11952 -1.75547 -4.17449 1.11952 -1.75548 90.5308 -23.3666 -108.416 34.7292 -5.78485 35.3284 -43.7167 3.93574 -97.5669 -15.321 8.37623 -64.485 -85.477 -33.2837 82.7102 4.49261 23.2943 0.599808 15.1653 4.58677 -57.9509 23.6847 -16.4173 -65.0439 13.2302 19.0148 8.29501 -10.1904 16.1146 6.44794 
-95.4817 96.481 -107.471 -67.1149 -63.4971 -67.533 -158.145 28.5033 86.9847 -49.4357 18.5506 -12.7453 58.3467 -2.3102 -5.34678 45.2103 6.52088 2.36218 170.602 42.759 87.2498 -57.5949 -20.3798 1.75868 68.5434 -5.29956 -0.432648 29.3052 -1.41289 4.93507 0.536639 8.47009 -90.6167 9.93671 0.789473 -1.28807 -1.73467 0.732024 -1.32157 -24.2684 1.14007 -0.991288 -4.25575 1.14008 -0.991293 89.0403 -23.8696 -111.42 33.2548 -1.77073 35.605 -47.3498 4.07806 -97.1136 -16.3988 9.23856 -65.725 -86.5495 -35.5767 81.2448 -2.99062 23.4594 4.53863 19.8998 11.1297 -54.445 29.5718 -20.0222 -63.7758 14.5703 21.2914 10.5692 -10.1242 17.6464 6.70371 
-88.8035 95.5773 -102.753 -62.9113 -66.3001 -65.3465 -158.905 33.0793 86.7132 -62.225 8.89025 -8.14573 68.5284 4.56449 -1.31709 35.8058 2.39872 2.16339 167.899 41.5044 88.6508 -53.2748 -25.9694 4.00993 67.8561 -4.61208 1.47171 35.5324 -3.51439 2.6708 0.423631 8.61964 -90.4104 9.63655 0.659189 -0.865214 -2.03453 0.620478 -0.893389 -24.5697 0.888744 -0.627114 -4.55705 0.888752 -0.627101 88.6048 -24.2393 -112.17 32.8752 -0.689641 33.7354 -43.9029 2.94461 -96.3877 -13.8208 7.74681 -65.9133 -87.5001 -38.3937 80.1947 -10.1476 24.0153 3.55908 17.2035 14.2774 -49.8282 34.3173 -21.8604 -60.7473 15.5148 21.4242 9.3675 -9.29381 17.957 8.01661 
-83.0909 93.836 -97.8846 -63.8302 -68.9832 -66.5871 -159.539 37.4171 92.2934 -69.3924 0.110158 -4.61244 75.7821 9.95473 1.86002 30.4126 1.49473 -1.91696 169.47 34.7651 88.6868 -49.7465 -12.8072 2.83214 73.8775 -8.67452 3.51562 32.1785 -2.13658 3.00273 0.600503 8.79322 -90.2926 9.28913 1.0663 -0.656468 -2.38161 1.03639 -0.702767 -24.9196 1.2143 -0.305617 -4.90691 1.21429 -0.305625 89.1008 -24.9709 -110.755 33.6916 -2.01189 28.5375 -47.5921 0.421041 -93.525 -18.519 10.1564 -64.3244 -88.7534 -43.5992 79.267 -14.0699 19.3031 3.40014 16.5139 18.9423 -45.9509 33.5085 -19.7675 -56.9572 14.1729 20.1626 7.98438 -8.27436 17.2724 7.79174 
-77.4079 91.2093 -93.5049 -61.2052 -70.8523 -65.0884 -161.369 43.4906 99.4265 -69.299 -5.51885 -2.86942 77.5215 11.862 3.16431 30.0295 1.76355 -3.01074 172.812 34.9425 85.1311 -55.7984 -0.88223 -0.869709 82.0502 -14.7154 1.62772 29.9637 -0.654768 0.483977 0.835637 8.77582 -89.9943 9.32585 1.66901 -0.113367 -2.34402 1.6624 -0.186739 -24.8877 1.6259 0.393627 -4.87503 1.6259 0.393617 89.6069 -25.6886 -109.351 34.5234 -6.42551 26.2235 -43.7671 1.05859 -94.4327 -20.0059 10.2336 -60.2607 -89.1712 -48.6033 79.6762 -16.9529 13.106 8.66982 17.4879 19.3437 -46.6183 29.5568 -19.1227 -61.2198 14.2373 18.8108 6.58704 -8.70725 16.2942 7.2821 
-71.0759 88.8722 -87.714 -57.3954 -72.6588 -59.4384 -166.01 48.8724 109.681 -63.7162 -7.0632 -2.03858 82.4915 14.7818 1.77373 26.3813 -1.41825 0.716936 171.786 33.6052 80.8262 -57.372 -0.294992 -1.62522 81.7072 -14.4925 3.06223 38.1971 -3.82388 -2.87467 0.943141 8.87296 -89.9673 9.12926 1.8958 -0.0696088 -2.54033 1.89091 -0.153023 -25.086 1.82904 0.503565 -5.07341 1.82904 0.503564 89.2978 -24.4575 -110.58 33.5875 -9.73361 23.0831 -42.0305 3.40171 -97.2079 -24.7954 11.8664 -56.9643 -86.6623 -47.7254 83.3651 -23.1255 4.67926 17.0518 21.2347 15.629 -55.0055 24.7381 -15.4962 -59.2333 16.8861 18.2263 6.37204 -8.8089 15.6154 6.33941 
-64.1647 88.6214 -80.5057 -53.6016 -77.7096 -53.9957 -169.955 48.4004 115.714 -52.5969 -3.37577 -1.79734 78.6637 12.932 1.94429 26.9311 -1.54581 1.60832 167.032 25.5955 74.7675 -50.9828 -6.2697 -0.746449 76.4819 -11.5695 1.31613 42.1545 -5.5842 -4.05515 0.901171 8.88455 -90.0352 9.10674 1.78175 -0.195658 -2.56301 1.77141 -0.273916 -25.1077 1.75815 0.349046 -5.09508 1.75816 0.349051 88.4822 -26.1943 -111.472 32.7957 -8.43497 24.4524 -39.5549 4.33373 -98.88 -19.8253 10.0439 -60.0363 -85.9332 -45.2592 84.1033 -24.4036 4.54658 20.0037 23.9952 17.941 -54.8483 21.8247 -15.9368 -65.8127 14.6561 15.5566 1.75086 -10.809 14.1853 7.38987 
-55.7523 90.044 -72.2724 -38.2542 -82.0152 -37.9536 -171.532 44.9144 113.677 -45.5389 1.95882 -1.23827 75.9795 11.1675 0.793686 26.5187 -3.71532 5.77423 167.174 15.3864 69.5773 -40.0181 -10.1531 -3.40026 60.9832 -1.34181 1.81109 47.6418 -7.96072 -6.8882 0.818927 8.77348 -90.1212 9.33095 1.57872 -0.356725 -2.3391 1.56148 -0.425896 -24.8821 1.61293 0.134369 -4.86944 1.61292 0.134353 88.4794 -28.7083 -110.319 33.5877 -6.65895 27.0259 -34.6492 1.93734 -97.7277 -18.1432 9.21216 -60.4658 -87.1493 -43.8564 81.9045 -20.4607 10.0268 13.6014 27.2714 22.6944 -52.9639 18.5255 -15.2136 -70.8708 8.64494 11.3972 -4.8468 -11.7175 11.563 8.58976 
-45.9954 91.8468 -63.3096 -22.8243 -83.6528 -20.1865 -170.356 39.2081 109.414 -44.2549 7.32093 -1.15632 70.0186 6.94633 -1.96762 28.4342 -1.59913 3.2236 173.397 7.37295 71.4603 -37.3335 -11.6761 -10.9793 56.225 2.75691 -0.698464 19.5413 3.95305 0.679771 0.73966 8.62902 -90.4169 9.62043 1.28638 -0.926753 -2.05024 1.24435 -0.98248 -24.5896 1.50542 -0.497242 -4.57696 1.50542 -0.497254 90.9186 -28.0683 -105.637 36.4997 -6.13717 27.8091 -30.3367 -0.281974 -89.7958 -17.8733 8.52914 -57.3756 -89.1367 -42.9619 78.502 -12.3841 12.4343 2.67478 20.3663 20.5134 -49.16 29.6827 -19.3217 -61.4474 2.22819 8.10331 -10.7943 -14.35 8.96615 7.75545 
-35.9537 91.6267 -55.889 -18.8089 -81.7054 -14.7186 -173.342 35.8469 104.917 -48.7241 1.4569 1.08882 74.2729 9.14219 -2.52596 38.7752 2.29316 6.76434 -179.734 10.3653 73.2242 -50.2541 -21.5161 -15.7166 62.2697 -2.54804 -4.58079 13.8246 4.9427 5.32174 0.391428 8.29883 -90.6772 10.2771 0.470368 -1.38533 -1.39456 0.408959 -1.40468 -23.9258 0.864949 -1.17995 -3.91317 0.86495 -1.17996 92.4504 -26.8345 -102.906 37.2844 -0.362885 27.5502 -32.3188 -7.26676 -80.0998 -18.3425 8.33244 -55.3195 -89.7781 -43.2885 77.5411 -3.31776 6.36371 -8.6373 16.0012 18.6046 -48.5382 31.4474 -20.0348 -60.6715 -2.69006 6.67659 -12.8036 -16.7915 7.12361 8.58146 
-25.8285 90.1681 -49.9544 -47.4046 -79.8476 -41.7811 -170.752 32.7074 99.102 -56.9215 -8.3562 0.788088 87.2091 15.9426 -5.18902 36.9186 0.0203231 10.6244 -174.34 20.9661 74.4104 -65.2041 -20.2549 -14.3056 65.5526 -4.77485 -5.88917 16.8445 2.4323 8.61277 0.109453 8.63051 -90.8508 9.60831 -0.165752 -1.67003 -2.06366 -0.239093 -1.66112 -24.5905 0.343748 -1.64266 -4.57782 0.343748 -1.64266 91.8743 -27.3524 -103.932 32.9155 9.3247 24.2172 -29.8001 -15.3866 -64.6793 -17.5199 6.92151 -49.6629 -88.9363 -42.8953 78.8038 3.22423 -7.13163 -18.5875 13.4037 18.3656 -47.2755 32.0386 -19.6513 -59.1225 -3.61977 7.52642 -12.3402 -15.9773 7.74831 9.78352 
